<svg width="40" height="25" viewBox="0 0 40 25" fill="none" xmlns="http://www.w3.org/2000/svg">
<path d="M37.8889 10.4167H2.11111C0.945177 10.4167 0 11.3028 0 12.3958V12.6042C0 13.6972 0.945177 14.5833 2.11111 14.5833H37.8889C39.0548 14.5833 40 13.6972 40 12.6042V12.3958C40 11.3028 39.0548 10.4167 37.8889 10.4167Z" fill="#A78BFA"/>
<path d="M37.8889 20.8333H2.11111C0.945177 20.8333 0 21.7194 0 22.8125V23.0208C0 24.1139 0.945177 25 2.11111 25H37.8889C39.0548 25 40 24.1139 40 23.0208V22.8125C40 21.7194 39.0548 20.8333 37.8889 20.8333Z" fill="#A78BFA"/>
<path d="M37.8889 0H2.11111C0.945177 0 0 0.886103 0 1.97917V2.1875C0 3.28056 0.945177 4.16667 2.11111 4.16667H37.8889C39.0548 4.16667 40 3.28056 40 2.1875V1.97917C40 0.886103 39.0548 0 37.8889 0Z" fill="#A78BFA"/>
</svg>
